rec1_008.mot
nRows=20
nColumns=19

name rec1_008.mot
datacolumns 19
datarows 20
range 15.0061186244 15.0441187299
endheader
time	ground_force_vx	ground_force_vy	ground_force_vz	ground_force_px	ground_force_py	ground_force_pz	1_ground_force_vx	1_ground_force_vy	1_ground_force_vz	1_ground_force_px	1_ground_force_py	1_ground_force_pz	ground_torque_x	ground_torque_y	ground_torque_z	1_ground_torque_x	1_ground_torque_y	1_ground_torque_z	
       15.0061186244	       -4.1241098375	      359.5631309611	      -37.5972483129	       -0.7000000000	       -0.0180000000	        0.5600000000	        4.0233565419	      355.0250082530	       42.8131236813	       -0.7000000000	       -0.0180000000	       -0.5600000000	      140.8869751568	       20.4452599266	      336.6878079454	     -121.9569657462	      -39.3922371042	      338.3107744526	
       15.0081185205	       -4.0894040243	      359.0534186060	      -37.5080840986	       -0.7000000000	       -0.0180000000	        0.5600000000	        4.0339273524	      355.3519291123	       42.7187884809	       -0.7000000000	       -0.0180000000	       -0.5600000000	      140.6737452866	       20.3876213084	      336.2951202695	     -122.0924373846	      -39.3142811883	      338.6216826427	
       15.0101186965	       -4.0438061097	      358.6628625043	      -37.4329181275	       -0.7000000000	       -0.0180000000	        0.5600000000	        4.0470833552	      355.7104023681	       42.6237789305	       -0.7000000000	       -0.0180000000	       -0.5600000000	      140.5062072044	       20.3347436891	      336.0213273679	     -122.2398648688	      -39.2326286072	      338.9616376160	
       15.0121183926	       -3.9917477992	      358.3984392185	      -37.3763084686	       -0.7000000000	       -0.0180000000	        0.5600000000	        4.0617320785	      356.1021891931	       42.5304726811	       -0.7000000000	       -0.0180000000	       -0.5600000000	      140.3867078567	       20.2911678741	      335.8740092720	     -122.3993880554	      -39.1497406510	      339.3329244027	
       15.0141186887	       -3.9381243753	      358.2648963652	      -37.3425292604	       -0.7000000000	       -0.0180000000	        0.5600000000	        4.0766702556	      356.5277908623	       42.4409822567	       -0.7000000000	       -0.0180000000	       -0.5600000000	      140.3167451428	       20.2611075947	      335.8586075082	     -122.5706833167	      -39.0678507490	      339.7365953426	
       15.0161184648	       -3.8881235363	      358.2646352263	      -37.3353891361	       -0.7000000000	       -0.0180000000	        0.5600000000	        4.0906335220	      356.9865265453	       42.3571118422	       -0.7000000000	       -0.0180000000	       -0.5600000000	      140.2969492187	       20.2486219072	      335.9782905343	     -122.7530080711	      -38.9889463627	      340.1725570247	
       15.0181189209	       -3.8471029367	      358.3976840146	      -37.3580892928	       -0.7000000000	       -0.0180000000	        0.5600000000	        4.1023807632	      357.4767072866	       42.2803753218	       -0.7000000000	       -0.0180000000	       -0.5600000000	      140.3270771811	       20.2578954729	      336.2338999056	     -122.9452911487	      -38.9147963247	      340.6397445108	
       15.0201184969	       -3.8205208207	      358.6617725381	      -37.4131277282	       -0.7000000000	       -0.0180000000	        0.5600000000	        4.1107835356	      357.9958849593	       42.2120504093	       -0.7000000000	       -0.0180000000	       -0.5600000000	      140.4060194326	       20.2932904788	      336.6239809857	     -123.1462476155	      -38.8469892956	      341.1363453265	
       15.0221188730	       -3.8138680440	      359.0524823881	      -37.5022543045	       -0.7000000000	       -0.0180000000	        0.5600000000	        4.1148988923	      358.5411293933	       42.1532365135	       -0.7000000000	       -0.0180000000	       -0.5600000000	      140.5318286213	       20.3588313078	      337.1448827182	     -123.3544863430	      -38.7869557436	      341.6600361489	
       15.0241185291	       -3.8325534907	      359.5634084739	      -37.6264715269	       -0.7000000000	       -0.0180000000	        0.5600000000	        4.1140098853	      359.1092995324	       42.1049099703	       -0.7000000000	       -0.0180000000	       -0.5600000000	      140.7017739770	       20.4576586269	      337.7908767510	     -123.5686108957	      -38.7359815536	      342.2082287597	
       15.0261188252	       -3.8817449851	      360.1863011433	      -37.7860612546	       -0.7000000000	       -0.0180000000	        0.5600000000	        4.1076205630	      359.6972983719	       42.0679923940	       -0.7000000000	       -0.0180000000	       -0.5600000000	      140.9124114568	       20.5917218372	      338.5542522031	     -123.7873225373	      -38.6952531983	      342.7783209818	
       15.0281185613	       -3.9661789245	      360.9112175576	      -37.9806214357	       -0.7000000000	       -0.0180000000	        0.5600000000	        4.0954041605	      360.3023111720	       42.0434254985	       -0.7000000000	       -0.0180000000	       -0.5600000000	      141.1596630163	       20.7619318793	      339.4254004008	     -124.0095039883	      -38.6659464290	      343.3679082661	
       15.0301188174	       -4.0899485516	      361.7266968456	      -38.2090996175	       -0.7000000000	       -0.0180000000	        0.5600000000	        4.0771207224	      360.9220095641	       42.0322305926	       -0.7000000000	       -0.0180000000	       -0.5600000000	      141.4389035390	       20.9689716365	      340.3929533431	     -124.2342667813	      -38.6493280406	      343.9749294565	
       15.0321185934	       -4.2563040688	      362.6199536415	      -38.4698127936	       -0.7000000000	       -0.0180000000	        0.5600000000	        4.0525387031	      361.5546975461	       42.0355570990	       -0.7000000000	       -0.0180000000	       -0.5600000000	      141.7450479509	       21.2135545383	      341.4440191668	     -124.4609808008	      -38.6468358592	      344.5977920978	
       15.0341188494	       -4.4675100590	      363.5771105772	      -38.7604668952	       -0.7000000000	       -0.0180000000	        0.5600000000	        4.0213936989	      362.1993816667	       42.0547144143	       -0.7000000000	       -0.0180000000	       -0.5600000000	      142.0726370914	       21.4955506816	      342.5644973997	     -124.6892922082	      -38.6601004238	      345.2354910211	
       15.0361186256	       -4.7247856834	      364.5834826484	      -39.0781930090	       -0.7000000000	       -0.0180000000	        0.5600000000	        3.9833932467	      362.8557387961	       42.0911521849	       -0.7000000000	       -0.0180000000	       -0.5600000000	      142.4159383722	       21.8132778634	      343.7394154888	     -124.9190997985	      -38.6908884911	      345.8876448392	
       15.0381189617	       -5.0283052835	      365.6238662978	      -39.4195836715	       -0.7000000000	       -0.0180000000	        0.5600000000	        3.9382566354	      363.5239778989	       42.1463818993	       -0.7000000000	       -0.0180000000	       -0.5600000000	      142.7690610617	       22.1636663793	      344.9532287946	     -125.1504805768	      -38.7409965203	      346.5544090215	
       15.0401186178	       -5.3772052162	      366.6827589330	      -39.7807124766	       -0.7000000000	       -0.0180000000	        0.5600000000	        3.8857688738	      364.2046442738	       42.2218768450	       -0.7000000000	       -0.0180000000	       -0.5600000000	      143.1260621570	       22.5430114306	      346.1900639705	     -125.3835992572	      -38.8121460547	      347.2363082310	
       15.0421190338	       -5.7695756665	      367.7445090930	      -40.1571627830	       -0.7000000000	       -0.0180000000	        0.5600000000	        3.8258245484	      364.8983821904	       42.3189820063	       -0.7000000000	       -0.0180000000	       -0.5600000000	      143.4810368377	       22.9476133600	      347.4339277029	     -125.6186185159	      -38.9059055599	      347.9340153247	
       15.0441187299	       -6.2024450322	      368.7934874667	      -40.5441005712	       -0.7000000000	       -0.0180000000	        0.5600000000	        3.7584412680	      365.6056265971	       42.4388269206	       -0.7000000000	       -0.0180000000	       -0.5600000000	      143.8282067662	       23.3735124116	      348.6689282676	     -125.8555924208	      -39.0236212926	      348.6480707069	
